# This file uses centimeters as units for non-parametric coordinates.

g default
v -0.375000 0.500000 0.062500
v -0.150000 0.500000 0.062500
v -0.150000 0.500000 -0.062500
v -0.375000 0.500000 -0.062500
v -0.150000 0.425000 -0.100000
v 0.150000 0.425000 -0.100000
v 0.150000 0.425000 -0.062500
v -0.150000 0.425000 -0.062500
v 0.375000 -0.500000 0.062500
v 0.375000 -0.500000 -0.062500
v 0.375000 0.500000 -0.062500
v 0.375000 0.500000 0.062500
v -0.150000 0.575000 -0.100000
v 0.150000 0.575000 -0.100000
v 0.150000 0.425000 0.062500
v 0.150000 0.425000 0.100000
v -0.150000 0.425000 0.100000
v -0.150000 0.425000 0.062500
v -0.150000 0.575000 0.100000
v 0.150000 0.575000 0.100000
v 0.150000 0.500000 -0.062500
v -0.375000 -0.500000 -0.062500
v 0.150000 0.500000 0.062500
v -0.375000 -0.500000 0.062500
v -0.150000 0.575000 0.060000
v 0.150000 0.575000 0.060000
v 0.150000 0.575000 -0.060000
v -0.150000 0.575000 -0.060000
v 0.375000 0.430000 -0.062500
v 0.375000 0.430000 0.062500
v -0.375000 0.430000 -0.062500
v -0.375000 0.430000 0.062500
v 0.150000 -0.500000 -0.062500
v -0.150000 -0.500000 0.062500
v -0.150000 -0.500000 -0.062500
v 0.150000 -0.500000 0.062500
vt 0.998008 0.651170
vt 0.998008 0.809209
vt 0.998008 0.927739
vt 0.932158 0.927739
vt 0.932158 0.809209
vt 0.932158 0.651170
vt 0.932158 0.532641
vt 0.998008 0.532641
vt 0.834283 0.690680
vt 0.834283 0.532641
vt 0.854038 0.532641
vt 0.854038 0.690680
vt 0.001992 0.001852
vt 0.067842 0.001852
vt 0.067842 0.491773
vt 0.001992 0.491773
vt 0.749128 0.690680
vt 0.749128 0.532641
vt 0.828148 0.532641
vt 0.828148 0.690680
vt 0.723238 0.532641
vt 0.742993 0.532641
vt 0.742993 0.690680
vt 0.723238 0.690680
vt 0.638083 0.690680
vt 0.638083 0.532641
vt 0.717103 0.532641
vt 0.717103 0.690680
vt 0.074298 0.001852
vt 0.192828 0.001852
vt 0.192828 0.041362
vt 0.074298 0.038728
vt 0.475782 0.491773
vt 0.594312 0.489139
vt 0.594312 0.528649
vt 0.475782 0.528649
vt 0.465171 0.532641
vt 0.484926 0.532641
vt 0.484926 0.572150
vt 0.486243 0.611660
vt 0.465171 0.611660
vt 0.437964 0.532641
vt 0.457719 0.532641
vt 0.457719 0.572150
vt 0.459036 0.611660
vt 0.437964 0.611660
vt 0.877267 0.491773
vt 0.943116 0.491773
vt 0.943116 0.528649
vt 0.877267 0.528649
vt 0.860173 0.927739
vt 0.860173 0.809209
vt 0.926023 0.809209
vt 0.926023 0.927739
vt 0.631948 0.532641
vt 0.631948 0.690680
vt 0.610876 0.690680
vt 0.610876 0.532641
vt 0.583669 0.690680
vt 0.583669 0.532641
vt 0.604741 0.532641
vt 0.604741 0.690680
vt 0.410757 0.611660
vt 0.412074 0.572150
vt 0.412074 0.532641
vt 0.431829 0.532641
vt 0.431829 0.611660
vt 0.383550 0.611660
vt 0.384867 0.572150
vt 0.384867 0.532641
vt 0.404622 0.532641
vt 0.404622 0.611660
vt 0.577533 0.690680
vt 0.538023 0.690680
vt 0.538023 0.532641
vt 0.577533 0.532641
vt 0.492378 0.532641
vt 0.531888 0.532641
vt 0.531888 0.690680
vt 0.492378 0.690680
vt 0.192828 0.528649
vt 0.074298 0.528649
vt 0.877267 0.001852
vt 0.943116 0.001852
vt 0.475782 0.001852
vt 0.594312 0.001852
vt 0.469396 0.038728
vt 0.350867 0.041362
vt 0.350867 0.001852
vt 0.469396 0.001852
vt 0.067842 0.528649
vt 0.001992 0.528649
vt 0.752351 0.489139
vt 0.870880 0.491773
vt 0.870880 0.528649
vt 0.752351 0.528649
vt 0.350867 0.528649
vt 0.860173 0.651170
vt 0.926023 0.651170
vt 0.752351 0.001852
vt 0.469396 0.528649
vt 0.860173 0.532641
vt 0.926023 0.532641
vt 0.870880 0.001852
vn 0.000000 1.000000 0.000000
vn 0.000000 1.000000 0.000000
vn 0.000000 1.000000 0.000000
vn 0.000000 1.000000 0.000000
vn 0.000000 1.000000 0.000000
vn 0.000000 1.000000 0.000000
vn 0.000000 1.000000 0.000000
vn 0.000000 1.000000 0.000000
vn 0.000000 -1.000000 0.000000
vn 0.000000 -1.000000 0.000000
vn 0.000000 -1.000000 0.000000
vn 0.000000 -1.000000 0.000000
vn 1.000000 0.000000 0.000000
vn 1.000000 0.000000 0.000000
vn 1.000000 0.000000 0.000000
vn 1.000000 0.000000 0.000000
vn 0.000000 0.000000 -1.000000
vn 0.000000 0.000000 -1.000000
vn 0.000000 0.000000 -1.000000
vn 0.000000 0.000000 -1.000000
vn 0.000000 -1.000000 0.000000
vn 0.000000 -1.000000 0.000000
vn 0.000000 -1.000000 0.000000
vn 0.000000 -1.000000 0.000000
vn 0.000000 0.000000 1.000000
vn 0.000000 0.000000 1.000000
vn 0.000000 0.000000 1.000000
vn 0.000000 0.000000 1.000000
vn 0.000000 0.000000 -1.000000
vn 0.000000 0.000000 -1.000000
vn 0.000000 0.000000 -1.000000
vn 0.000000 0.000000 -1.000000
vn 0.000000 0.000000 1.000000
vn 0.000000 0.000000 1.000000
vn 0.000000 0.000000 1.000000
vn 0.000000 0.000000 1.000000
vn -1.000000 0.000000 0.000000
vn -1.000000 0.000000 0.000000
vn -1.000000 0.000000 0.000000
vn -1.000000 0.000000 0.000000
vn -1.000000 0.000000 0.000000
vn 1.000000 0.000000 0.000000
vn 1.000000 0.000000 0.000000
vn 1.000000 0.000000 0.000000
vn 1.000000 0.000000 0.000000
vn 1.000000 0.000000 0.000000
vn -1.000000 0.000000 0.000000
vn -1.000000 0.000000 0.000000
vn -1.000000 0.000000 0.000000
vn -1.000000 0.000000 0.000000
vn 0.000000 -1.000000 0.000000
vn 0.000000 -1.000000 0.000000
vn 0.000000 -1.000000 0.000000
vn 0.000000 -1.000000 0.000000
vn 0.000000 1.000000 0.000000
vn 0.000000 1.000000 0.000000
vn 0.000000 1.000000 0.000000
vn 0.000000 1.000000 0.000000
vn 0.000000 1.000000 0.000000
vn 0.000000 1.000000 0.000000
vn 0.000000 1.000000 0.000000
vn 0.000000 1.000000 0.000000
vn 1.000000 0.000000 0.000000
vn 1.000000 0.000000 0.000000
vn 1.000000 0.000000 0.000000
vn 1.000000 0.000000 0.000000
vn 1.000000 0.000000 0.000000
vn -1.000000 0.000000 0.000000
vn -1.000000 0.000000 0.000000
vn -1.000000 0.000000 0.000000
vn -1.000000 0.000000 0.000000
vn -1.000000 0.000000 0.000000
vn 0.000000 -0.033315 -0.999445
vn 0.000000 -0.033315 -0.999445
vn 0.000000 -0.033315 -0.999445
vn 0.000000 -0.033315 -0.999445
vn 0.000000 -0.033315 0.999445
vn 0.000000 -0.033315 0.999445
vn 0.000000 -0.033315 0.999445
vn 0.000000 -0.033315 0.999445
vn 0.000000 0.000000 -1.000000
vn 0.000000 0.000000 -1.000000
vn 0.000000 0.000000 -1.000000
vn 0.000000 0.000000 -1.000000
vn -1.000000 0.000000 0.000000
vn -1.000000 0.000000 0.000000
vn -1.000000 0.000000 0.000000
vn -1.000000 0.000000 0.000000
vn 0.000000 0.000000 1.000000
vn 0.000000 0.000000 1.000000
vn 0.000000 0.000000 1.000000
vn 0.000000 0.000000 1.000000
vn 0.000000 0.000000 -1.000000
vn 0.000000 0.000000 -1.000000
vn 0.000000 0.000000 -1.000000
vn 0.000000 0.000000 -1.000000
vn 1.000000 0.000000 0.000000
vn 1.000000 0.000000 0.000000
vn 1.000000 0.000000 0.000000
vn 1.000000 0.000000 0.000000
vn 0.000000 0.000000 1.000000
vn 0.000000 0.000000 1.000000
vn 0.000000 0.000000 1.000000
vn 0.000000 0.000000 1.000000
vn 0.000000 0.000000 -1.000000
vn 0.000000 0.000000 -1.000000
vn 0.000000 0.000000 -1.000000
vn 0.000000 0.000000 -1.000000
vn 0.000000 -1.000000 0.000000
vn 0.000000 -1.000000 0.000000
vn 0.000000 -1.000000 0.000000
vn 0.000000 -1.000000 0.000000
vn 0.000000 0.000000 1.000000
vn 0.000000 0.000000 1.000000
vn 0.000000 0.000000 1.000000
vn 0.000000 0.000000 1.000000
vn 0.000000 0.000000 -1.000000
vn 0.000000 0.000000 -1.000000
vn 0.000000 0.000000 -1.000000
vn 0.000000 0.000000 -1.000000
vn 0.000000 -1.000000 0.000000
vn 0.000000 -1.000000 0.000000
vn 0.000000 -1.000000 0.000000
vn 0.000000 -1.000000 0.000000
vn 0.000000 0.000000 1.000000
vn 0.000000 0.000000 1.000000
vn 0.000000 0.000000 1.000000
vn 0.000000 0.000000 1.000000
g _pCube3
f 4/3/1 1/4/2 3/2/3
f 1/4/2 2/5/4 3/2/3
f 3/2/3 2/5/4 21/1/5
f 2/5/4 23/6/6 21/1/5
f 21/1/5 23/6/6 11/8/7
f 23/6/6 12/7/8 11/8/7
f 5/9/9 6/10/10 8/12/11
f 8/12/11 6/10/10 7/11/12
f 9/13/13 10/14/14 30/16/15
f 30/16/15 10/14/14 29/15/16
f 13/17/17 14/18/18 5/20/19
f 5/20/19 14/18/18 6/19/20
f 15/21/21 16/22/22 18/24/23
f 18/24/23 16/22/22 17/23/24
f 17/25/25 16/26/26 19/28/27
f 19/28/27 16/26/26 20/27/28
f 4/29/29 3/30/30 31/32/31
f 31/32/31 3/30/30 8/31/32
f 18/34/33 2/35/34 32/33/35
f 32/33/35 2/35/34 1/36/36
f 28/40/37 13/41/38 3/39/39
f 13/41/38 5/37/40 3/39/39
f 5/37/40 8/38/41 3/39/39
f 26/45/42 20/46/43 23/44/44
f 20/46/43 16/42/45 23/44/44
f 16/42/45 15/43/46 23/44/44
f 31/47/47 32/48/48 4/50/49
f 4/50/49 32/48/48 1/49/50
f 22/51/51 35/52/52 24/54/53
f 24/54/53 35/52/52 34/53/54
f 26/55/55 25/56/56 20/58/57
f 20/58/57 25/56/56 19/57/58
f 28/59/59 27/60/60 13/62/61
f 13/62/61 27/60/60 14/61/62
f 27/63/63 21/64/64 14/67/65
f 14/67/65 21/64/64 6/66/66
f 21/64/64 7/65/67 6/66/66
f 25/68/68 2/69/69 19/72/70
f 19/72/70 2/69/69 17/71/71
f 2/69/69 18/70/72 17/71/71
f 2/73/73 25/74/74 23/76/75
f 23/76/75 25/74/74 26/75/76
f 21/77/77 27/78/78 3/80/79
f 3/80/79 27/78/78 28/79/80
f 31/32/81 8/31/82 22/82/83
f 22/82/83 8/31/82 35/81/84
f 22/83/85 24/84/86 31/47/87
f 31/47/87 24/84/86 32/48/88
f 34/86/89 18/34/90 24/85/91
f 24/85/91 18/34/90 32/33/92
f 7/88/93 21/89/94 29/87/95
f 29/87/95 21/89/94 11/90/96
f 30/16/97 29/15/98 12/92/99
f 12/92/99 29/15/98 11/91/100
f 15/93/101 30/94/102 23/96/103
f 23/96/103 30/94/102 12/95/104
f 35/81/105 8/31/106 33/97/107
f 33/97/107 8/31/106 7/88/108
f 34/53/109 35/52/110 36/99/111
f 36/99/111 35/52/110 33/98/112
f 18/34/113 34/86/114 15/93/115
f 15/93/115 34/86/114 36/100/116
f 33/97/117 7/88/118 10/101/119
f 10/101/119 7/88/118 29/87/120
f 36/99/121 33/98/122 9/103/123
f 9/103/123 33/98/122 10/102/124
f 36/100/125 9/104/126 15/93/127
f 15/93/127 9/104/126 30/94/128
