# This file uses centimeters as units for non-parametric coordinates.

g default
v -0.500000 -0.362500 0.500000
v 0.500000 -0.362500 0.500000
v -0.500000 -0.237500 0.500000
v 0.500000 -0.237500 0.500000
v -0.500000 -0.237500 -0.500000
v 0.500000 -0.237500 -0.500000
v -0.500000 -0.362500 -0.500000
v 0.500000 -0.362500 -0.500000
v 0.000000 0.237500 0.707107
v 0.707107 0.237500 0.000000
v 0.000000 0.362500 0.707107
v 0.707107 0.362500 0.000000
v -0.707107 0.362500 0.000000
v 0.000000 0.362500 -0.707107
v -0.707107 0.237500 0.000000
v 0.000000 0.237500 -0.707107
v -0.270598 -0.062500 0.653281
v 0.653281 -0.062500 0.270598
v -0.270598 0.062500 0.653281
v 0.653281 0.062500 0.270598
v -0.653281 0.062500 -0.270598
v 0.270598 0.062500 -0.653281
v -0.653281 -0.062500 -0.270598
v 0.270598 -0.062500 -0.653281
vt 0.587232 0.998008
vt 0.587232 0.732318
vt 0.620443 0.998008
vt 0.620443 0.732318
vt 0.627214 0.998008
vt 0.627214 0.732318
vt 0.660425 0.998008
vt 0.660425 0.732318
vt 0.186814 0.660563
vt 0.186814 0.415098
vt 0.220026 0.660563
vt 0.220026 0.415098
vt 0.226797 0.660563
vt 0.226797 0.415098
vt 0.260008 0.660563
vt 0.260008 0.415098
vt 0.001858 0.732318
vt 0.267547 0.732318
vt 0.001858 0.998008
vt 0.267547 0.998008
vt 0.314627 0.732318
vt 0.580316 0.732318
vt 0.314627 0.998008
vt 0.580316 0.998008
vt 0.229892 0.001992
vt 0.417763 0.189863
vt 0.042021 0.189863
vt 0.229892 0.377734
vt 0.421674 0.188815
vt 0.609545 0.000944
vt 0.609545 0.376686
vt 0.797416 0.188815
vt 0.685162 0.381456
vt 0.930628 0.483131
vt 0.583487 0.626921
vt 0.828953 0.728596
vt 0.280338 0.623881
vt 0.386282 0.380228
vt 0.523991 0.729825
vt 0.629935 0.486171
vt 0.687206 0.987521
vt 0.687206 0.721832
vt 0.720417 0.987521
vt 0.720417 0.721832
vt 0.274645 0.998008
vt 0.274645 0.732318
vt 0.307856 0.998008
vt 0.307856 0.732318
vt 0.106850 0.660563
vt 0.106850 0.415098
vt 0.140061 0.660563
vt 0.140061 0.415098
vt 0.146832 0.660563
vt 0.146832 0.415098
vt 0.180044 0.660563
vt 0.180044 0.415098
vt 0.006283 0.382354
vt 0.001858 0.189863
vt 0.035069 0.377734
vt 0.035069 0.189863
vt 0.039494 0.570225
vt 0.001858 0.001992
vt 0.006283 0.570225
vt 0.035069 0.001992
vt 0.079311 0.384950
vt 0.079311 0.572821
vt 0.046100 0.384950
vt 0.046100 0.572821
vt 0.001858 0.377734
vt 0.039494 0.382354
vn 0.000000 0.000000 1.000000
vn 0.000000 0.000000 1.000000
vn 0.000000 0.000000 1.000000
vn 0.000000 0.000000 1.000000
vn 0.000000 1.000000 0.000000
vn 0.000000 1.000000 0.000000
vn 0.000000 1.000000 0.000000
vn 0.000000 1.000000 0.000000
vn 0.000000 0.000000 -1.000000
vn 0.000000 0.000000 -1.000000
vn 0.000000 0.000000 -1.000000
vn 0.000000 0.000000 -1.000000
vn 0.000000 -1.000000 0.000000
vn 0.000000 -1.000000 0.000000
vn 0.000000 -1.000000 0.000000
vn 0.000000 -1.000000 0.000000
vn 1.000000 0.000000 0.000000
vn 1.000000 0.000000 0.000000
vn 1.000000 0.000000 0.000000
vn 1.000000 0.000000 0.000000
vn -1.000000 0.000000 0.000000
vn -1.000000 0.000000 0.000000
vn -1.000000 0.000000 0.000000
vn -1.000000 0.000000 0.000000
vn 0.707107 0.000000 0.707107
vn 0.707107 0.000000 0.707107
vn 0.707107 0.000000 0.707107
vn 0.707107 0.000000 0.707107
vn 0.000000 1.000000 0.000000
vn 0.000000 1.000000 0.000000
vn 0.000000 1.000000 0.000000
vn 0.000000 1.000000 0.000000
vn -0.707107 0.000000 -0.707107
vn -0.707107 0.000000 -0.707107
vn -0.707107 0.000000 -0.707107
vn -0.707107 0.000000 -0.707107
vn 0.000000 -1.000000 0.000000
vn 0.000000 -1.000000 0.000000
vn 0.000000 -1.000000 0.000000
vn 0.000000 -1.000000 0.000000
vn 0.707107 0.000000 -0.707107
vn 0.707107 0.000000 -0.707107
vn 0.707107 0.000000 -0.707107
vn 0.707107 0.000000 -0.707107
vn -0.707107 0.000000 0.707107
vn -0.707107 0.000000 0.707107
vn -0.707107 0.000000 0.707107
vn -0.707107 0.000000 0.707107
vn 0.382683 0.000000 0.923880
vn 0.382683 0.000000 0.923880
vn 0.382683 0.000000 0.923880
vn 0.382683 0.000000 0.923880
vn 0.000000 1.000000 0.000000
vn 0.000000 1.000000 0.000000
vn 0.000000 1.000000 0.000000
vn 0.000000 1.000000 0.000000
vn -0.382683 0.000000 -0.923880
vn -0.382683 0.000000 -0.923880
vn -0.382683 0.000000 -0.923880
vn -0.382683 0.000000 -0.923880
vn 0.000000 -1.000000 0.000000
vn 0.000000 -1.000000 0.000000
vn 0.000000 -1.000000 0.000000
vn 0.000000 -1.000000 0.000000
vn 0.923880 0.000000 -0.382683
vn 0.923880 0.000000 -0.382683
vn 0.923880 0.000000 -0.382683
vn 0.923880 0.000000 -0.382683
vn -0.923880 0.000000 0.382683
vn -0.923880 0.000000 0.382683
vn -0.923880 0.000000 0.382683
vn -0.923880 0.000000 0.382683
g pCube4
f 1/41/1 2/42/2 3/43/3
f 3/43/3 2/42/2 4/44/4
f 3/17/5 4/18/6 5/19/7
f 5/19/7 4/18/6 6/20/8
f 5/45/9 6/46/10 7/47/11
f 7/47/11 6/46/10 8/48/12
f 7/21/13 8/22/14 1/23/15
f 1/23/15 8/22/14 2/24/16
f 2/1/17 8/2/18 4/3/19
f 4/3/19 8/2/18 6/4/20
f 7/5/21 1/6/22 5/7/23
f 5/7/23 1/6/22 3/8/24
f 9/69/25 10/58/26 11/59/27
f 11/59/27 10/58/26 12/60/28
f 11/25/29 12/26/30 13/27/31
f 13/27/31 12/26/30 14/28/32
f 13/65/33 14/66/34 15/67/35
f 15/67/35 14/66/34 16/68/36
f 15/29/37 16/30/38 9/31/39
f 9/31/39 16/30/38 10/32/40
f 10/58/41 16/62/42 12/60/43
f 12/60/43 16/62/42 14/64/44
f 15/63/45 9/57/46 13/61/47
f 13/61/47 9/57/46 11/70/48
f 17/49/49 18/50/50 19/51/51
f 19/51/51 18/50/50 20/52/52
f 19/33/53 20/34/54 21/35/55
f 21/35/55 20/34/54 22/36/56
f 21/53/57 22/54/58 23/55/59
f 23/55/59 22/54/58 24/56/60
f 23/37/61 24/38/62 17/39/63
f 17/39/63 24/38/62 18/40/64
f 18/9/65 24/10/66 20/11/67
f 20/11/67 24/10/66 22/12/68
f 23/13/69 17/14/70 21/15/71
f 21/15/71 17/14/70 19/16/72
