# This file uses centimeters as units for non-parametric coordinates.

g default
v -0.500000 -0.500000 0.500000
v 0.500000 -0.500000 0.500000
v -0.500000 0.250000 0.500000
v 0.500000 0.250000 0.500000
v -0.500000 0.250000 -0.500000
v 0.500000 0.250000 -0.500000
v -0.500000 -0.500000 -0.500000
v 0.500000 -0.500000 -0.500000
v -0.166667 0.000000 0.500000
v 0.166667 0.000000 0.500000
v -0.166667 0.000000 -0.500000
v 0.166667 0.000000 -0.500000
v 0.170000 -0.500000 -0.500000
v 0.170000 -0.500000 0.500000
v -0.170000 -0.500000 -0.500000
v -0.170000 -0.500000 0.500000
v 0.000000 0.500000 0.500000
v 0.000000 0.500000 -0.500000
v -0.500000 0.000000 0.500000
v 0.500000 0.000000 0.500000
v -0.500000 0.000000 -0.500000
v 0.500000 0.000000 -0.500000
v -0.166667 0.250000 0.500000
v 0.166667 0.250000 0.500000
v -0.166667 0.250000 -0.500000
v 0.166667 0.250000 -0.500000
vt 0.674575 0.331555
vt 0.674575 0.001992
vt 0.839357 0.331555
vt 0.839357 0.001992
vt 0.833579 0.664782
vt 0.833579 0.335219
vt 0.915970 0.664782
vt 0.668797 0.335218
vt 0.915970 0.335218
vt 0.668797 0.664782
vt 0.415994 0.664782
vt 0.415994 0.335218
vt 0.580776 0.664782
vt 0.580776 0.335218
vt 0.663166 0.664782
vt 0.663166 0.335218
vt 0.015710 0.335218
vt 0.180491 0.335218
vt 0.015710 0.664782
vt 0.180491 0.664782
vt 0.300509 0.664782
vt 0.300509 0.335218
vt 0.410363 0.664782
vt 0.410363 0.335218
vt 0.186122 0.335218
vt 0.294878 0.335218
vt 0.186122 0.664781
vt 0.294878 0.664781
vt 0.110584 0.668445
vt 0.110584 0.998008
vt 0.001828 0.668445
vt 0.001828 0.998008
vt 0.281268 0.668445
vt 0.446050 0.668445
vt 0.281268 0.998008
vt 0.446050 0.998008
vt 0.116487 0.668445
vt 0.116487 0.998008
vt 0.001828 0.001992
vt 0.110584 0.001992
vt 0.001828 0.166774
vt 0.111683 0.166774
vt 0.001828 0.249164
vt 0.111683 0.249164
vt 0.221537 0.249164
vt 0.166610 0.331555
vt 0.221537 0.166774
vt 0.331391 0.249164
vt 0.331391 0.166774
vt 0.222636 0.001992
vt 0.331391 0.001992
vt 0.448145 0.166774
vt 0.447047 0.331555
vt 0.338291 0.166774
vt 0.338291 0.331555
vt 0.448145 0.084383
vt 0.338291 0.084383
vt 0.558000 0.166774
vt 0.503073 0.001992
vt 0.558000 0.084383
vt 0.667854 0.166774
vt 0.667854 0.084383
vt 0.559098 0.331555
vt 0.667854 0.331555
vn 0.000000 -0.000000 1.000000
vn 0.000000 -0.000000 1.000000
vn 0.000000 -0.000000 1.000000
vn 0.000000 -0.000000 1.000000
vn 0.000000 -0.000000 1.000000
vn 0.000000 -0.000000 1.000000
vn -0.000000 0.000000 -1.000000
vn -0.000000 0.000000 -1.000000
vn -0.000000 0.000000 -1.000000
vn 0.000000 0.000000 -1.000000
vn 0.000000 0.000000 -1.000000
vn 0.000000 0.000000 -1.000000
vn -0.999978 -0.006666 0.000000
vn -0.999978 -0.006666 0.000000
vn -0.999978 -0.006666 0.000000
vn -0.999978 -0.006667 0.000000
vn -0.999978 -0.006667 0.000000
vn -0.999978 -0.006667 0.000000
vn 1.000000 0.000000 0.000000
vn 1.000000 0.000000 0.000000
vn 1.000000 0.000000 0.000000
vn 1.000000 0.000000 0.000000
vn -1.000000 0.000000 0.000000
vn -1.000000 0.000000 0.000000
vn -1.000000 0.000000 0.000000
vn -1.000000 0.000000 0.000000
vn 0.000000 -1.000000 0.000000
vn 0.000000 -1.000000 0.000000
vn 0.000000 -1.000000 0.000000
vn 0.000000 -1.000000 0.000000
vn 0.000000 -1.000000 0.000000
vn 0.000000 -1.000000 0.000000
vn 0.000000 -1.000000 0.000000
vn 0.000000 -1.000000 0.000000
vn 0.999978 -0.006667 0.000000
vn 0.999978 -0.006667 0.000000
vn 0.999978 -0.006667 0.000000
vn 0.999978 -0.006667 0.000000
vn 0.000000 -1.000000 0.000000
vn 0.000000 -1.000000 0.000000
vn 0.000000 -1.000000 0.000000
vn 0.000000 -1.000000 0.000000
vn 0.447214 0.894427 0.000000
vn 0.447214 0.894427 0.000000
vn 0.447214 0.894427 0.000000
vn 0.447214 0.894427 0.000000
vn -0.447214 0.894427 0.000000
vn -0.447214 0.894427 0.000000
vn -0.447214 0.894427 0.000000
vn -0.447214 0.894427 0.000000
vn 0.000000 0.000000 1.000000
vn 0.000000 0.000000 1.000000
vn 0.000000 0.000000 1.000000
vn -1.000000 0.000000 0.000000
vn -1.000000 0.000000 0.000000
vn 0.000000 0.000000 -1.000000
vn 0.000000 0.000000 -1.000000
vn 0.000000 0.000000 -1.000000
vn 0.000000 -0.000000 -1.000000
vn 0.000000 -0.000000 -1.000000
vn 0.000000 -0.000000 -1.000000
vn -0.000000 -0.000000 1.000000
vn -0.000000 -0.000000 1.000000
vn -0.000000 -0.000000 1.000000
vn 0.000000 -0.000000 1.000000
vn 0.000000 -0.000000 1.000000
vn 0.000000 -0.000000 1.000000
vn 1.000000 0.000000 0.000000
vn 1.000000 0.000000 0.000000
vn 0.000000 0.000000 -1.000000
vn 0.000000 0.000000 -1.000000
vn 0.000000 0.000000 -1.000000
vn 0.000000 0.000000 -1.000000
vn 0.000000 0.000000 -1.000000
vn 0.000000 0.000000 -1.000000
vn 0.000000 0.000000 1.000000
vn 0.000000 0.000000 1.000000
vn 0.000000 0.000000 1.000000
vn 0.000000 0.000000 1.000000
vn 0.000000 0.000000 1.000000
vn 0.000000 0.000000 1.000000
vn 0.000000 0.000000 -1.000000
vn 0.000000 0.000000 -1.000000
vn 0.000000 0.000000 -1.000000
vn 0.000000 0.000000 1.000000
vn -0.000000 0.000000 1.000000
vn -0.000000 0.000000 1.000000
vn -0.000000 0.000000 1.000000
vn 0.000000 0.000000 -1.000000
vn 0.000000 0.000000 -1.000000
vn 0.000000 0.000000 -1.000000
vn 0.000000 -0.000000 -1.000000
vn 0.000000 -0.000000 -1.000000
vn 0.000000 -0.000000 -1.000000
vn -0.000000 0.000000 -1.000000
vn -0.000000 0.000000 -1.000000
vn -0.000000 0.000000 -1.000000
vn 0.000000 0.000000 -1.000000
g pCube1
f 1/39/1 16/40/2 19/41/3
f 19/41/4 16/40/5 9/42/6
f 11/52/7 15/53/8 21/54/9
f 21/54/10 15/53/11 7/55/12
f 13/1/13 14/2/14 12/3/15
f 12/3/16 14/2/17 10/4/18
f 20/5/19 22/6/20 4/7/21
f 4/7/21 22/6/20 6/9/22
f 7/11/23 1/12/24 21/13/25
f 21/13/25 1/12/24 19/14/26
f 9/21/27 11/22/28 10/23/29
f 10/23/29 11/22/28 12/24/30
f 13/25/31 8/26/32 14/27/33
f 14/27/33 8/26/32 2/28/34
f 15/17/35 11/18/36 16/19/37
f 16/19/37 11/18/36 9/20/38
f 15/29/39 16/30/40 7/31/41
f 7/31/41 16/30/40 1/32/42
f 17/33/43 4/34/44 18/35/45
f 18/35/45 4/34/44 6/36/46
f 17/33/47 18/35/48 3/37/49
f 3/37/49 18/35/48 5/38/50
f 17/46/51 24/45/52 4/48/53
f 21/13/25 19/14/26 5/15/54
f 5/15/54 19/14/26 3/16/55
f 12/58/56 26/60/57 22/61/58
f 22/61/59 26/60/60 6/62/61
f 10/47/62 14/50/63 20/49/64
f 20/49/65 14/50/66 2/51/67
f 2/10/68 8/8/69 20/5/19
f 20/5/19 8/8/69 22/6/20
f 12/58/70 22/61/71 13/63/72
f 13/63/73 22/61/74 8/64/75
f 19/41/76 9/42/77 3/43/78
f 3/43/79 9/42/80 23/44/81
f 5/57/82 18/59/83 25/56/84
f 23/44/81 9/42/80 24/45/52
f 24/45/52 9/42/80 10/47/85
f 24/45/52 10/47/85 4/48/53
f 4/48/86 10/47/87 20/49/88
f 11/52/89 25/56/84 12/58/90
f 12/58/90 25/56/84 26/60/91
f 5/57/92 25/56/93 21/54/94
f 21/54/95 25/56/96 11/52/97
f 26/60/91 18/59/83 6/62/98
f 25/56/84 18/59/83 26/60/91
f 3/43/79 23/44/81 17/46/51
f 17/46/51 23/44/81 24/45/52
